<?xml version="1.0" encoding="UTF-8"?><svg xmlns="http://www.w3.org/2000/svg" viewBox="0 0 996.67 530"><defs><style>.cls-1{fill:#55e4d3;}</style></defs><g id="Layer_2"><g id="Layer_1"><path class="cls-1" d="M981.67,388.67v119.33c0,3.87-3.13,7-7,7h-493c69.03,0,131.53-27.98,176.78-73.22,17.63-17.63,32.63-37.88,44.39-60.11h-114.17c-3.87,0-7-3.13-7-7v-61c0-3.87,3.13-7,7-7h133.54c3.48,0,6.44-2.56,6.94-6.01,1.66-11.65,2.52-23.55,2.52-35.66s-.86-24.01-2.52-35.66c-.5-3.45-3.46-6.01-6.94-6.01h-133.54c-3.87,0-7-3.13-7-7v-61c0-3.87,3.13-7,7-7h114.17c-41.92-79.29-125.24-133.33-221.17-133.33h133.33c138.08,0,250,111.93,250,250v109.67c0,3.87,3.13,7,7,7h102.67c3.87,0,7,3.13,7,7Z"/></g></g><g id="Layer_3"><path class="cls-1" d="M481.67,264.24c.21,69.33-27.81,132.12-73.22,177.54-45.25,45.24-107.75,73.22-176.78,73.22H22c-3.87,0-7-3.13-7-7v-119.33c0-3.87,3.13-7,7-7h209.67c32.21,0,61.38-13.06,82.5-34.17,20.93-20.94,33.94-49.78,34.17-81.66.46-64.63-53.42-117.51-118.05-117.51H22c-3.87,0-7-3.13-7-7V22c0-3.87,3.13-7,7-7h207.82c138.08,0,251.44,111.17,251.85,249.24Z"/></g></svg>