<?xml version="1.0" encoding="UTF-8"?><svg id="Layer_1" xmlns="http://www.w3.org/2000/svg" viewBox="0 0 409.6 409.6"><defs><style>.cls-1{fill:#55e4d3;}</style></defs><path class="cls-1" d="M409.56,147.45l.04,252.55c-1.83,4.59-5.04,7.67-9.58,9.6h-5.59s-5.44-2.62-5.44-2.62l-60.49-48.56-174.29-.04c-28.12,0-51.07-22.43-51.15-50.34l-.04-13.69c-.02-7.44,6.17-12.92,13.12-12.73s12.3,5.55,12.38,12.73l.13,12.94c.14,13.94,11.15,25.47,25.56,25.47l177.83.03c3.75.25,6.83,1.2,9.57,3.38l42.44,33.9-.02-216.34c0-14.59-11.53-25.35-25.46-25.71-7.32-.19-12.57-5.65-12.8-12.47-.21-6.44,4.78-12.9,11.89-13.04,26.77-.5,47.74,18.99,51.91,44.93Z"/><path class="cls-1" d="M287.99.05c25.58,4.14,44.93,24.64,44.93,51.26v153.41c0,28.4-22.79,51.26-51.19,51.27H94.88s-73.02,60.94-73.02,60.94c-3.98,3.32-9.28,3.89-13.65,1.8-3.57-1.7-7.38-5.62-7.38-10.97V46C4.15,21.44,21.93,3.92,45.77.05h242.22ZM282.21,230.3c14.36,0,25.12-11.86,25.12-25.55V51.26c0-14.23-11.32-25.62-25.6-25.62H52.02c-14.54,0-25.26,11.37-25.68,25.68l.02,228.49,55.21-46.03c2.57-2.14,5.97-3.38,9.58-3.38l191.06-.11Z"/><path class="cls-1" d="M243.85,102.38l-153.53.02c-7.42,0-12.64-5.82-12.82-12.43-.19-6.96,5.14-13.17,12.81-13.17h153.13c7.39,0,12.62,5.74,12.81,12.45.18,6.31-4.56,13.13-12.4,13.13Z"/><path class="cls-1" d="M192.8,153.57l-102.52.03c-7.35,0-12.61-5.83-12.79-12.43-.19-6.96,5.18-13.17,12.78-13.17h102.11c7.32,0,12.59,5.74,12.78,12.44.18,6.32-4.62,13.12-12.36,13.12Z"/></svg>