<?xml version="1.0" encoding="UTF-8"?><svg id="Layer_1" xmlns="http://www.w3.org/2000/svg" viewBox="0 0 752.33 752.33"><defs><style>.cls-1{fill:#55e4d3;}</style></defs><path class="cls-1" d="M267.37,431.04c-1.24,10.34-9.13,18.97-19.7,19l-48.17.13c-11.16.03-19.55-8.31-20.83-18.95l-3.72-30.91c-14.5-4.64-26.7-9.81-40.2-16.93l-24.25,18.98c-8.37,6.55-20.05,6.48-27.76-1.23l-33.66-33.65c-7.22-7.21-7.95-18.9-1.8-26.81l19.66-25.27c-6.31-13-11.47-24.44-16.07-38.64l-30.39-3.75c-10.64-1.31-18.96-9.62-18.96-20.82v-46.84c-.01-10.99,8.02-19.67,18.66-20.94l28.84-3.42c4.23-14.87,9.38-28.41,16.71-42.37l-18.73-24.26c-5.92-7.66-4.98-19.23,1.77-25.97l34.47-34.42c7.23-7.22,18.84-7.26,26.74-1.17l22.38,17.27c14.73-8.8,28.98-14.39,44.9-19.07l3.77-28.36c1.43-10.73,11-17.36,21.25-17.35l45.64.03c10.35,0,19.64,7.02,21.02,17.52l3.72,28.15c15.97,4.7,29.73,10.42,43.99,18.45l20.89-16.41c8.26-6.49,20.01-6.4,27.7,1.29l33.62,33.64c7.16,7.16,7.87,18.89,1.83,26.68l-17.59,22.65c7.35,13.67,12.87,27.02,17.19,41.7l28.75,3.71c10.61,1.37,17.43,10.88,17.43,21.07v45.68c.01,10.22-6.63,19.85-17.43,21.22l-29.06,3.67c-4.5,14.55-10.32,28.35-17.89,42.43l18.24,23.51c6.13,7.91,6.12,19.54-1.1,26.76l-34.41,34.42c-7.79,7.8-19.5,7.18-27.83.67l-22.99-17.97c-14.23,7.6-27.6,12.91-43.13,17.49l-3.52,29.41ZM304.36,225.99c0-43.83-35.53-79.37-79.37-79.37s-79.37,35.53-79.37,79.37,35.53,79.37,79.37,79.37,79.37-35.53,79.37-79.37Z"/><path class="cls-1" d="M752.26,409.22l.07,14.6c-3.62,8.02-9.54,13.17-18.79,15.12l-17.51,3.69c-3.06,13.23-6.35,23.2-11.52,35.7l13.7,14.81c7.08,7.65,8.82,18.98,1.7,27.44l-21.4,25.42c-6.18,7.34-17.46,9.5-25.73,4.23l-19.05-12.14-34,17.12-1.09,22.53c-.46,9.48-8.04,17.93-17.65,18.77l-33.37,2.94c-10.57.93-19.45-6.26-21.63-16.3l-4.87-22.43c-12.26-3.02-22.29-6.33-33.85-11l-16.03,14.8c-7.8,7.2-19.26,8.19-27.51,1.18l-25.32-21.52c-7.55-6.41-8.96-17.8-3.73-25.9l12.57-19.47c-6.28-10.14-11.1-19.24-15.78-30.34l-23.52-1.21c-9.49-.49-17.64-8.33-18.48-17.86l-2.88-32.91c-.96-10.94,6.38-19.8,16.66-22.01l20.21-4.34c2.92-12.88,6.05-23.26,10.77-35.52l-13.41-14.43c-6.97-7.5-9.29-18.85-2.22-27.33l21.92-26.27c6.84-8.2,18.24-8.85,26.9-3.25l16.27,10.54c11.65-7.56,21.47-13.09,35.12-18.28l1.41-20.69c.66-9.71,8.23-17.86,18.14-18.7l33.56-2.81c9.87-.83,18.62,6.4,20.71,15.58l4.54,19.87c13.54,2.95,23.99,6.41,36.9,11.94l13.85-12.63c8.05-7.34,19.3-7.74,27.6-.74l23.88,20.15c7.8,6.58,10.66,17.57,4.84,26.7l-11.05,17.33c6.51,10.82,11.62,20.64,16.45,32.94l18.98.79c12.77.53,20.41,9.35,21.25,21.88l1.19,17.6c.08,1.12.91,3.8,1.19,4.38ZM635.03,414.96c0-35.83-29.04-64.87-64.87-64.87s-64.87,29.04-64.87,64.87,29.04,64.87,64.87,64.87,64.87-29.04,64.87-64.87Z"/><path class="cls-1" d="M304.52,748.37l-20.05-.23c-10.56-.12-18.67-7.96-19.98-18.11l-1.95-15.15-26.59-11.5-12.05,8.81c-8.35,6.11-19.28,5.62-26.53-1.81l-14.47-14.85c-6.76-6.94-7.21-18.05-1.41-25.65l9.63-12.63-10.47-25.89-13.64-1.92c-10.68-1.51-18.82-9.59-18.65-20.9l.3-20.2c.13-9.1,7.03-17.39,16.09-18.82l16-2.52c3.4-10.15,6.67-18.11,11.26-27.65l-8.47-11.54c-6.13-8.36-5.05-19.58,2.24-26.67l14.91-14.49c6.74-6.55,17.73-6.79,25.11-1.24l11.13,8.37c10.08-4.88,18.91-8.44,29.95-12.09l2.31-13.31c1.64-9.47,9.78-16.79,19.7-16.7l20.45.19c9.8.09,18.06,7.2,19.53,16.84l2.11,13.76c9.68,3.34,18.43,7.2,27.34,11.91,2.26-.15,6.43-2.46,8.4-4.27,8.7-8.02,21.14-9.01,29.55-.54l13.84,13.94c7.43,7.49,8.14,18.8,1.72,27.16l-7.76,10.11,10.72,27.75,10.37,1.86c11.45,2.05,20.24,9.1,20.12,21.01l-.19,19.61c-.09,9.68-7.14,18.23-16.81,19.69l-14.61,2.22-12.01,27.56,8.43,11.72c5.85,8.14,5.38,19.23-1.92,26.35l-14.85,14.48c-6.88,6.71-17.86,7.19-25.54,1.45l-12.28-9.18-28.57,11.08-2.29,14.6c-1.49,9.51-9.33,17.51-20.1,17.39ZM350.32,598.84c0-29.17-23.65-52.83-52.83-52.83s-52.83,23.65-52.83,52.83,23.65,52.83,52.83,52.83,52.83-23.65,52.83-52.83Z"/></svg>