<?xml version="1.0" encoding="UTF-8"?><svg id="Layer_1" xmlns="http://www.w3.org/2000/svg" viewBox="0 0 469.69 446.91"><defs><style>.cls-1{fill:#55e4d3;}</style></defs><path class="cls-1" d="M95.67,173.97l-2.52,8.74c-4.51-9.31-1.93-15.26-16.2-18.4l8.9-4.57c5.13-3.09,4.12-9.2,6.82-15l2.57,8.24c2.8,8.97,8.28,7.87,12.2,10.32,2.56,1.6-9.14,1.51-11.78,10.66Z"/><path class="cls-1" d="M51.1,401.58c-2.33-3.65,2.14-5.96,3.84-8.69,12.2-13.38,24.71-25.68,38.25-37.65l1.93-.88c.36-.16,1.45.4,1.33.77l-.83,2.55c-14.13,14.84-28.26,29.2-44.52,43.9Z"/><path class="cls-1" d="M418.54,401.55c-16.15-14.25-30.35-28.83-44.66-44.1l-1.01-2.5c-.21-.51,2.18-.41,2.72-.28,14.45,12.87,27.86,25.9,40.65,40.33,1.56,1.95,3.23,3.37,2.31,6.55Z"/><path class="cls-1" d="M428.39,215.88c-8.4,4-15.89,8.15-25.18,10.85,1.76-5.26,7.36-7.27,12.06-9.5l35.99-17.05c3.56-1.69,7.13-3.64,11.37-2.48-10.99,7.86-22.3,12.51-34.24,18.19Z"/><path class="cls-1" d="M66.09,224.03c.26.15.1,2.4-.24,2.38-.51-.03-2.04-.15-2.67-.44l-23.86-10.92c-11.28-5.16-21.84-9.96-32.55-17.44,5.08-.84,9.17,1.58,13.33,3.52l32.84,15.32,13.14,7.58Z"/><path class="cls-1" d="M0,309.69c2.27-4.36,6.22-4.41,9.8-6.02l49.53-12.92c.46.43,1.35,1.15,1.15,1.41l-1.51,1.99c-19.24,6.62-38.44,12.21-58.96,15.54Z"/><path class="cls-1" d="M408.33,291.81c14.91.52,56.55,12.36,61.3,16.36.38.32-1.49,1.25-2.3,1.71-19.43-5.79-40.91-7.81-59-18.08Z"/><path class="cls-1" d="M354.17,76.42l-2.71,9.76c-1.37-1.1-2.23-2.7-2.88-4.44.01-7.55-4.52-12.55-12.28-12.85l-.18-2.29c-.04-.54,1.91-1.22,2.61-1.26,12.25-.82,7.59-12.81,12.7-15.92l4.64,12.75c.85,2.33,6.02,2.01,9.53,4.92,1.59,1.32-9.42,2.12-11.42,9.34ZM350.91,75.63c2.14-3.76,4.64-6.41,7.72-8.57-4.03-1.02-6.29-4.32-7.41-8.88-1.42,3.95-3.76,7.56-7.62,9.08,3.44,2.03,5.92,4.86,7.3,8.37Z"/><path class="cls-1" d="M150.4,436.67c-1.35,2.1-2.38,3.64-4.86,3.41,5.75-17.93,12.33-34.61,19.85-51.51l1.88-1.65c.5-.43,1.27,1.71,1.38,2.47l-18.25,47.27Z"/><path class="cls-1" d="M236.96,444l-1,2.77c-.2.56-1.46-.71-2.19-1.55l-.43-52.44,1.29-1.78c.3-.42,1.12.24,1.84.86,1.18,17.46,1.43,34.18.5,52.14Z"/><path class="cls-1" d="M323.61,437.72l-.87,2.56c-.21.63-1.87-.7-2.7-1.35-6.3-17.03-15.47-33.11-18.46-52.53,11.16,15.59,14.75,34.39,22.04,51.32Z"/><path class="cls-1" d="M317.28,372.02l-.42,2.15c-.06.32-1.26.32-1.32,0l-.4-1.97c-1.15-5.72-3.01-9.33-10.69-10.6l7.87-3.81,3.76-10.49c1.35,3.7,2.88,8.33,4.48,10.82l7.39,3.41c-7.11,1.79-9.36,3.93-10.66,10.49Z"/><path class="cls-1" d="M54.5,260.43c-11.36,2.24-22.49,1.07-33.51-2.22,11.03-2.62,22.7-1.82,33.51,2.22Z"/><path class="cls-1" d="M448.45,258.22c-11.15,3.43-22.2,4.16-33.55,2.3,10.82-4.36,22.54-4.83,33.55-2.3Z"/><path class="cls-1" d="M68.97,331.27l-25.15,15.87c-.9-.16-2.38-.43-2.23-.86l.72-2.04,25.41-15.94,1.25,2.97Z"/><path class="cls-1" d="M375.24,106.55c-5.33-.64-6.39,11.38-7.15,8.26l-.5-2.05c-1.05-4.33-3.38-5.89-8.27-7.33l5.91-3.07c1.47-.77,1.96-4.31,3.03-7.32l1.68,4.43c.73,1.92,2.46,3.92,4.31,4.32l2.36.5c.6.13-.66,2.34-1.37,2.26Z"/><path class="cls-1" d="M427.73,347.11c-11.08-3.95-20.99-10.12-27.87-18.44,10.99,4.13,21.26,9.98,27.87,18.44Z"/><path class="cls-1" d="M110.64,404.1c3.31-10.25,9.98-19.14,17.25-26.5-3.06,10.59-8.8,19.55-17.25,26.5Z"/><path class="cls-1" d="M358.55,403.94c-7.84-6.19-13.85-15.93-16.66-26.01,7.55,7.48,13.21,15.6,16.66,26.01Z"/><path class="cls-1" d="M92.54,225.24l-2.43,5.55c-2.22-4.39-3.7-5.95-8.05-8.29,1.38-.86,4.66-.94,5.02-2.03l2.14-6.43c2.36,4.44,2.77,5.58,8.07,8.2l-4.76,3Z"/><path class="cls-1" d="M422.26,177.12c-5.54,7.38-12.6,13.12-21.69,16.86,4.51-7.53,12.82-13.17,21.69-16.86Z"/><path class="cls-1" d="M67.74,193.48c-7.51-2.72-15.14-8.8-20.81-16.16,8.2,3.22,15.57,7.91,20.81,16.16Z"/><path class="cls-1" d="M198.08,399.88c1.78,8.57-.23,16.59-4,24.28-1.37-8.01-.15-16.48,4-24.28Z"/><path class="cls-1" d="M275.25,422.9c-3.56-6.44-5.3-14.83-3.95-23.3,3.97,7.19,5.12,14.47,3.95,23.3Z"/><path class="cls-1" d="M154.94,359.68c-1.76-.3-4.13-.93-7.47-2.24l8.06-2.85c.34-3.23.56-5.49,2.57-8.34l1.74,7.97-3.26,1.03c-.76.24-.93,1.49-1.64,4.43Z"/><circle class="cls-1" cx="381.26" cy="212.37" r="3.26"/><path class="cls-1" d="M221.22,353.92c18.2,7.4,26.08-1.52,38.45-1.09-15.21,10.25-33.58,9.66-48.25.21,3.58-.57,6.95-.28,9.8.88Z"/><path class="cls-1" d="M290.32,337.41c-.02,4.5-2.77,7.36-6.61,7.4l-31.12.33-65.04.07c-3.05,0-6.7-2.57-6.77-5.73l-1.26-55.81c-3.51-.39-6.77-2.44-6.75-6.14l.08-19.89c0-2.42,3.3-5.84,5.88-5.87l34.21-.4-16.61-8.28c-6.53-3.25-8.57-10.98-5.85-17.16s8.98-9.97,16.4-8.44c6.24,1.29,12.55,5.38,16.11,10.84l12.19,18.72c5.19-10.07,11.26-19.6,20.49-26.26,6.56-4.73,15.51-4.87,21.01.6,6.19,6.17,5.65,14.93-1.01,20.4-5.16,4.24-11.32,6.68-18.21,9.45l34.4.17c2.42.01,5.54,4.12,5.54,6.42l-.07,20.59c0,2.8-3.5,4.72-6.7,4.56l-.29,54.43ZM229.03,249.37l-11.89-17.21c-3.82-3.25-7.57-5.8-12.08-7.48-3.53.59-6.71,1.87-7.6,4.57-2.89,8.79,18.6,18.43,31.58,20.12ZM241.57,249.44c11.16-2.16,19.87-5.97,28.05-11.77,2.31-2.31,3.78-5.27,3.01-8.33-.53-2.12-4.15-4.68-6.98-4.3-9.76,1.31-19.55,14.46-24.09,24.4ZM292.57,277.96l-.27-21.31-46.48-.69.09,22.34,46.67-.34ZM224.08,278.31l-.16-21.81-46.09.56.16,21.38,46.09-.13ZM224.74,283.02l-40.16.51.73,57.75,40.16-.51-.73-57.75ZM245.41,283.05l-.23,57.51,40.44.16.23-57.51-40.44-.16Z"/><path class="cls-1" d="M167.05,248.81c-3.17-7.7-2.9-15.62-1.64-23.11,1.85,8.34,2.07,15.4,1.64,23.11Z"/><path class="cls-1" d="M241.03,225.61c-1.53,2.81-3.4,3.74-5.9,3.7s-4.36-1.09-6.02-3.65l11.92-.05Z"/><path class="cls-1" d="M361.08,319.55c-2.21,5.46-4.69,11.56-9.59,15.76-3.49,2.99-8.2,3.84-12.07,1.23-3.21-2.17-3.94-7.04-2.85-12.52-5.96,3.99-11.32,7.87-18.57,7.2-3.02-.28-6.51-3.15-7.31-5.4-1.08-3.02.38-7.31,2.84-9.13l6.85-5.07c-5.41-15.4.9-32,14.44-41.82l-4.5-18.91c-4.03.61-7.85.5-10.37-1.02-7.07-4.27.26-17.28-3.17-39.3-.45-2.87.01-6.11,2.02-8.18,5.87-6.03,28.61-.28,34.28,17.69,2.07,6.56.77,13.12-2.28,18.33l9.08,23.4c1.83.74,6.06,1.68,8.35,1.64,8.54-6.04,18.56-8.82,22.94-1.79,4.64,7.43-4.46,15.4-11.72,21.95l-.19,12.83c-.05,3.12,5.65,29.97-10.04,29.72-3.35-.05-5.88-1.91-8.13-6.58ZM327.94,246.76c-2.04-7.58,1.12-12.64,6.64-15.53,4.5-2.35,10.02-1.11,13.74,3.51,2.92-5.47,2.48-11.36-.15-16.84-6.63-13.82-28.74-17.91-27.71-9.42,1.36,11.16,1.08,21.11,0,32.27-.17,1.8.42,5.07,1.66,5.84s4.99.87,5.83.18ZM356.17,261.69c-3.51-10.55-7.29-18.79-12.48-27.06-3.66-1.09-6.57-.72-9.43,1.14-1.81,1.17-4.31,5.16-3.36,7.45,3.39,8.09,5.91,15.68,7.37,23.97,6.1-2.97,11.6-4.35,17.89-5.49ZM385.68,261.51c-10.67-.8-23.61,9.16-21.5,17.81.41,1.67,3.66,4.47,5.31,3.95,17.89-5.68,22.82-21.26,16.19-21.76ZM360.36,309.3c-.96-4.3-.37-9.47,2.63-12.74s7.63-4.8,12.57-2.94l.02-7.9c-2.81.78-7.38,1.54-9.76.83-2.12-.63-4.8-3.8-5.48-6.46-1.27-4.93.77-9.12,3.63-13.34-16.5-3.19-31.71,5.9-38.6,20.58-3.35,7.13-4.06,14.62-1.45,22.09,6.55-2.45,13.15.89,15.1,8.75,2.39-5.97,6.58-11.05,13.91-11.35,1.75-.07,5.18,1.47,7.43,2.48ZM374.51,297.72c-1.3-2.15-5.42-1.81-6.84-.71-1.28.99-4.11,4.06-4.01,5.68l.95,15.08c.1,1.61,2.31,4.3,3.76,4.67,6.5,1.65,12.4-14.41,6.15-24.72ZM357.27,312.8c-.92-4.08-9.93-2.49-11.44.96l-6.12,14.03c-.71,1.63.8,5.36,2.14,6.16,5.94,3.57,17.6-11.47,15.42-21.16ZM334.95,319.57c.44-1.8-1.34-5.25-2.81-6.07s-5.75-1.67-7.23-.53l-9.67,7.43c-1.09.84-1.68,3.95-.94,5.01,3.27,4.64,15.35.86,20.64-5.84Z"/><path class="cls-1" d="M359.67,292.6c-4.78,8.73-13.97,13.42-23.43,12.51,9.19-2.56,15.97-7.1,23.43-12.51Z"/><path class="cls-1" d="M327.91,294.73c-.8-7.75,4.33-15.07,10.58-18.1-5.23,5.86-8.55,11.42-10.58,18.1Z"/><path class="cls-1" d="M344.64,222.43l-9.04-10.9c4.71,1.4,9.18,4.99,9.04,10.9Z"/><path class="cls-1" d="M351.97,260.36c-3.74-6.39-6.02-12.23-8.26-18.91,4.79,5.31,7.25,11.7,8.26,18.91Z"/><path class="cls-1" d="M118.83,335.81c-5.2-4.1-7.97-10.03-10.53-16.42-1.03,2.8-2.85,5.82-5.78,6.62s-6.99-.78-9-3.15c-6.65-7.85-4.67-17.1-3.48-26.62l.32-12.66c-7.79-6.48-16.71-14.84-11.76-22.41,4.3-6.56,14.33-3.38,22.8,1.93,2,.55,6.38-.45,8.45-1.2l8.94-23.5c-2.05-4.34-4.11-9.64-3.16-14.66,2.63-13.91,13.59-22.91,27.49-23.76,4.37-.27,10.37,2.12,9.77,7.54-1.24,11.26-1.84,21.82.03,33.13.24,1.47.04,5.3-.72,6.64-2.16,3.82-8.15,4.52-12.68,3.53-2.6,5.83-3.96,12.69-4.49,19.04,13.04,9.81,19.7,26.8,14.03,41.41l7.83,6.37c1.78,1.44,3.01,5.89,2.29,7.86-.95,2.6-4.03,5.2-7.14,5.62-7.25.98-13.15-3.38-19.05-7.07.67,4.87.43,9.37-1.8,11.64-3.26,3.3-8.47,3.15-12.34.09ZM141.34,247.17c3.68.06,5.69.06,6.71-.71.85-.64,1.13-3.63,1.02-4.73-1.06-11.5-1.22-21.73.04-33.26.16-1.47-1.31-4.34-2.69-4.44-12.66-.89-23.39,6.69-26.69,18.76-1.05,3.84-.35,8.09,1.22,11.91,4.53-5.25,10.63-5.86,15.79-2.53s6.82,8.87,4.61,15ZM131.49,267.37c1.33-9.14,3.39-16.46,7.2-23.98.15-3.29-1.56-6.49-4.15-8.23-10.29-6.89-16.31,12.77-21.1,26.83,6.47.68,12.27,2.54,18.05,5.38ZM105.29,274.32c-5.53-11.74-21.88-16.22-23.96-10.61-2.43,6.55,9.15,16.88,18.68,19.46,3.78,1.02,7.13-4.93,5.29-8.85ZM109.42,309.44c4.24-2.73,8.68-3.38,13.04-1.16,3.94,2.01,5.97,5.29,8.05,10,1.11-8.71,8.62-10.13,15.21-9.5,4.26-10.81-.8-24.2-8.6-32.04s-19.84-12.52-31.41-9.93c4.82,6.8,5.23,14.95-.05,18.4-3.58,2.34-7,1.98-11.66.43l.15,7.59c4.8-1.05,9.01-.03,11.93,2.69,3.52,3.27,3.88,7.79,3.34,13.5ZM104.94,317.59l.98-13.3c.15-2.06-1.7-5.48-3.38-6.87-1.44-1.2-5.74-2.18-7.18-.16-6.84,9.59-.86,26.14,5.74,25.3,1.5-.19,3.73-3.36,3.85-4.96ZM129.75,327.27l-5.39-12.45c-1.63-3.76-9.57-6.09-11.94-2.42-2.52,12.03,11.13,26.59,16.28,20.6.78-.91,1.61-4.42,1.05-5.73ZM155.3,322.36c-3.59-5.85-12.1-12.28-17.91-8.87-1.54.9-3.13,3.5-3.48,5.88,11.82,11.67,24.73,8.42,21.39,2.99Z"/><path class="cls-1" d="M135.71,305.14c-8.62,2.95-22.77-4.41-26.18-12.77,8.52,6.49,16.29,11.71,26.18,12.77Z"/><path class="cls-1" d="M133.36,210.96l-8.5,11.92c-.31-4.84,3.31-11.27,8.5-11.92Z"/><path class="cls-1" d="M118.68,258.62c.47-7.22,2.91-15.31,9.35-21.21l-9.35,21.21Z"/><path class="cls-1" d="M281.44,194.3c-6.17,2.93-11.57,7.42-18.45,8.84-19.82,4.08-39.95,3.96-59.72-1.08-5.39-1.38-10.37-5.57-15.31-7.68-10.21-1.15-29.03,8.34-27.14,14.2,1.01,3.12,5.59,5.18,8.72,6.37.21-.17-.9.63-.99.89l-.65,1.92-7.69-4.14c-.93,23.87,1.19,47.28,7.26,70.29l4.92,14.1c1.21,3.47,1.48,7.41.95,10.66-14.29-29.62-17.93-65.65-16.9-98.13.15-4.84,3.39-10.32,7.58-12.47l12.09-6.18c-17.26-3.85-27.77-9.01-34.69-25-3.81-8.82-13.25-6.42-14.84-15.21-1.98-10.94-2.18-21.91,1.72-32.5,2.71-7.38,12.93-5.81,15.95-12.91,13.55-31.94,38.85-48.68,72.11-55.6,2.22-4.86,6.08-7.26,11.67-8.05,1.24-6.83,1.99-14.81,1.85-21.93-3.43-2.48-6.6-5.65-6.66-9.58s2.27-7.91,6.04-9.88c5.52-2.88,11.7-.42,14.3,4.14,3.3,5.79,1.07,11.97-5.21,15.3l2.59,21.44c5.66,1.19,9.37,4.62,12.32,8.99,33.79,6.15,58.08,23.38,71.95,54.94,3.17,7.21,14.17,4.64,16.64,15.43,2.12,9.3,2.76,18.99,1.15,28.31-2.06,11.99-11.91,9.48-14.52,16.55-4.35,11.79-13.6,19.57-25.37,22.8l-9.83,2.7,10.77,5.45c5.85,2.96,9.6,9.16,9.26,15.77l-2.15,42.17c-.93,18.2-6.42,35.26-13.26,51.9-1.19-4.62-.22-9.02,1.52-12.84,2.93-6.43,4.59-12.41,5.74-19.45,3.24-19.97,4.86-39.77,4.51-60.27-7.44,4.18-14.85,7.07-22.71,8.94l-1.44-2.64,20.25-8.16c1.19-.48,2.94-2.54,3.27-3.72,1.65-6.04-16.63-16.31-27.6-14.68ZM236.09,17.54c3.68-.92,6-4.44,5.75-7.4-.28-3.24-3-5.75-6.47-6.29-5-.78-8.66,2.9-8.42,7.27.22,3.96,4.11,7.67,9.14,6.41ZM237.01,37.87l-2.69-14.18-2.31,16.15c-.15,1.06,2.38,2.36,3.33,1.98s1.86-2.94,1.67-3.96ZM247.6,49.15c-7.53-5.42-18.78-5.04-26.77.11l26.77-.11ZM272.71,190.91c10.14-.9,19.38-2.64,29.17-5.11,11.92-3,21.98-11.79,24.43-24.57,3.46-18.05,1.96-37.27-4.81-54.45-20.12-51.07-87.88-66.98-134.67-42-18.23,9.73-32.62,24.83-39.57,44.32-6.04,16.93-7.58,35.41-3.85,52.68,2.44,11.3,10.74,19.55,21.05,22.96,28.19,9.31,77.39,8.91,108.25,6.17ZM131.61,154.52c2.3.81,4.56,1.98,6.87,3.35-1.26-14.98.19-28.91,2.8-43.36-3.21.9-3.81,5.27-4.19,7.11-.09.44-1.97,1.82-1.96,1.37l.05-2.11.06-2.68c.01-.52-1.48-.76-1.89-.43-4.74,3.69-6.63,26.9-1.74,36.74ZM334.02,116.48l-.58,7.42c-1.92-3.54-.55-8.07-5.62-9.98,3.1,14.89,4.23,29.26,3.36,44.15,5.14-.94,7.92-4.78,8.69-9.44,1.62-9.86,1.04-28.81-5.85-32.14ZM244.33,199.07l16.47-3.28c-11.67-.11-22.83.61-34.06,1.95-4.56.54-6.74.02-11.37-.69l-13.98-2.14c-1.01-.16-3.4.8-3.91,1.4,22.54,8.23,54.68,9.35,75.36-.46-10.09,1.13-18.86,5.95-28.51,3.22Z"/><path class="cls-1" d="M311.71,148.66c.14,18.52-16.86,23.01-34.19,25-33.01,3.79-65.95,3.39-98.63-2.05-11.75-1.96-19.82-11.49-20.16-22.95s.74-22.04,3.05-32.8c2.79-12.97,11.41-22,23.97-26.36,16.31-5.67,33.38-7.22,50.9-7.34,16.87-.11,32.81,2.23,48.49,7.84,11.05,3.95,19.01,11.38,22.31,23.12s4.18,23.41,4.27,35.54ZM292.65,167.28c8.08-1.57,15.31-8.38,15.64-15.59.56-12.19-.92-23.8-3.33-35.36-2.62-12.61-11.72-20.65-24.09-24.23-31.02-9-64.58-8.86-95.31,1.23-9.93,3.26-16.99,10.79-19.62,20.52-3.23,11.94-4.48,24.04-3.76,36.37.51,8.71,6.78,15.89,15.81,17.38,37.91,6.26,76.35,7.11,114.66-.31Z"/><path class="cls-1" d="M135.61,150.68c-3.52-2.4-2.34-16.96-.21-24.26l.21,24.26Z"/><path class="cls-1" d="M279.89,144.37c-4.91,3.68-11.34,3.19-16.36.2-4.03-2.4-7.03-7.62-7.52-13.1-.72-8,3.64-14.81,10.5-16.69,7.75-2.12,14.92,1.49,18.12,8.99,2.96,6.94,1.92,15.61-4.73,20.61ZM277.72,141.11c5.3-3.92,5.52-8.99,4.21-14.2-.97-3.82-4.34-8.39-9.29-9.34-4.57-.88-8.68,1.74-10.74,4.86-2.34,3.53-2.92,7.43-1.44,11.94,2.99-6.01,7.28-7.19,12.18-5.2,4.51,1.83,5.39,6.13,5.09,11.94Z"/><path class="cls-1" d="M213.72,132.12c-.68,5.22-3.4,9.92-6.43,11.93-4.21,2.79-9.71,3.88-14.24,2.04-9.34-3.79-12.24-15.2-7.71-23.68,3.63-6.79,11.1-9.71,17.88-7.76s11.57,9.28,10.5,17.47ZM209.16,134.93c2.04-4.29,1.22-9.44-1.41-12.97s-7.26-5.7-11.99-4.22c-5,1.57-7.82,6.51-8.42,11.09-.65,4.94.37,10.36,5.41,13.05-1.8-5.43-.36-10.57,4.29-12.19,4.71-1.64,9.54-.36,12.11,5.24Z"/><path class="cls-1" d="M236.09,155.75c-6.81.57-15.33-3.89-15.79-9.75-.3-3.83,7.14,5.76,13.79,5.82,8.95.07,11.19-6.26,14.74-6.81,2.73-.42-1.27,9.77-12.73,10.74Z"/><path class="cls-1" d="M298.24,115.47c-3.29-6.81-8.13-12.45-15.42-15.98l-9.54-4.62c5.57.42,9.73,2.54,14.27,4.82,5.49,3.46,10.47,7.99,10.69,15.79Z"/><path class="cls-1" d="M285.94,165.43c5.57-2.78,11.92-4.93,16.99-9.63l1.52-11.81c1.85,3.29,1.89,8.8.59,11.96-4.74,5.23-11.34,8.91-19.09,9.48Z"/><path class="cls-1" d="M282.16,107.81c-4.96-.04-9.35-.9-13.39-2.82,4.81-4.48,10.4-1.8,13.39,2.82Z"/><path class="cls-1" d="M199.41,105.16l-12.75,3.29c1.44-5.28,8.91-8.43,12.75-3.29Z"/></svg>