<?xml version="1.0" encoding="UTF-8"?><svg id="Layer_1" xmlns="http://www.w3.org/2000/svg" viewBox="0 0 384 384"><defs><style>.cls-1{fill:#55e4d3;}</style></defs><path class="cls-1" d="M384,94.32v148.21c-1.67,3.76-4.63,5.78-9.04,5.78l-47.07-.05c-3.17,0-6.45-2.33-7.34-5.16l-2.49-7.89-12.61,8.5c1.62,8.6-1.08,17.03-7.44,23.01-5.21,4.98-11.59,7.96-19.43,7.72-5.87,12.8-19.69,19.19-33.62,16.93-7.1,13.21-20.73,20.27-34.82,15.52-14.55,10.62-36.85,3.38-50.88-7.04-24.14-17.93-47.61-35.76-70.41-55.36-8.58-7.38-15.53-15.75-23.38-23.48l-2.09,6.32c-.91,2.74-4.01,4.95-7.1,4.95l-46.5.06c-4.59,0-7.81-1.53-9.77-5.52V78.6c1.57-4.17,5-6.35,9.8-5.97,18.39,1.45,87.43,6.78,86.09,23.84l-.64,8.11,63.95-.04c22.51-17.69,40.22-18.71,66.02-8.13l47.72,19.57c-1.72-4.68.14-9.19,4.77-11.07,29.5-11.99,63.8-15.79,95.75-16.39,5-.09,8.74,1.2,10.53,5.8ZM71.07,143.2c3.55-14.78,6.39-28.07,8.55-42.84-20.08-7.26-42.77-9.19-63.64-11.2v127.18s34.17,0,34.17,0c7.68-24.44,14.54-48.15,20.92-73.13ZM334.04,232.28l33.98-.02v-127.6c-25.82.64-51.45,4.04-76.48,12.08l9.44,22.37c12.01,30.7,22.74,61.19,33.06,93.17ZM196.85,145.11c2.81-1.11,6.19-.6,8.22,1.29,8.72,8.09,17.29,15.39,26.51,22.99l43.51,35.83c8.47,7.63,16.2,15,23.38,23.91l14.54-9.79c-9.56-28.2-19.35-55.53-30.3-82.79-21.14-7.57-41.11-15.53-61.28-24.39-5.23-2.3-10.18-4.03-15.59-5.51-20.24-4.58-33.35,6.7-47.6,19.86-9.42,8.7-17.27,18.49-21.8,30.57-1.22,3.26-1.51,6.59-.93,10.16,8.92,5.26,19.79,3.92,27.19-3.38,2.91-2.87,5.32-6.04,7.99-9.26,2.08-2.49,6.36-1.68,9.1-2.76l17.06-6.72ZM263.91,268.05l-44.69-45.11c-3.58-3.61-4.51-8.4-.91-12.18,2.94-3.09,8.1-3.35,11.47.09l29.23,29.89,18.03,17.35c4.73,1.21,8.96-1.09,11.57-4.86,2.17-3.44,1.51-7.98-1.11-11.81-12.26-17.89-39.79-37.8-57.8-52.97l-31.68-26.68c-5.92,2.66-11.81,4.93-17.83,6.56-4.88,6.14-10.35,11.14-17.32,14.48-10.35,4.74-22.02,4.56-32.38-.11-6.98-3.15-10.83-9.65-11.4-17.27.05-5.51,1.17-10.66,3.05-15.86,4.53-10.94,11.08-20.26,19.25-29.03l-48.84-.06c-5.75,27.98-13.26,55.3-21.71,83.12l27.02,27.41c23.08,20.33,47.43,38.28,71.93,56.79,7.86,5.07,16.35,9,25.85,8.18l-33.05-33.76c-3.3-3.38-3.33-8.02-.53-11.22s8.21-3.82,11.43-.48l20.6,21.36,19.19,18.29c2.29,2.18,5.65,2.84,8.66,1.75,4.19-1.52,7.52-4.74,9.08-8.7-13.01-12.55-25.19-24.84-37.22-37.94-3.12-3.39-1.95-8.69,1.2-11.21,3.36-2.69,7.94-2.16,11.16,1.13l31.06,31.8c2.84,2.91,6.26,6.36,9.88,7.99,6.17,2.79,14.02-1.19,16.81-6.93Z"/></svg>