<?xml version="1.0" encoding="UTF-8"?><svg id="Layer_1" xmlns="http://www.w3.org/2000/svg" viewBox="0 0 750.61 672.44"><defs><style>.cls-1{fill:#55e4d3;}</style></defs><path class="cls-1" d="M91.45,480.07c.13-1.66,1.03-4.1,2.03-4.35s3.27-.03,4.48.22l36.9,22.35c.7,1.13,1.41,3.28,1.21,4.36-.23,1.26-3.8,2.08-4.94,1.41l-27.78-16.4c37.79,85.17,115.07,145.45,204.68,168.33,65,16.6,126.44,12.36,187.59-15.29,30.74-13.9,58.61-31.79,84.06-53.92,35.59-30.95,63.12-69.16,81.14-112.69.58-1.39,3.75-2.18,4.97-1.68,1.15.47,1.94,3.05,1.22,4.77-14.35,34.4-34.3,65.69-60.11,92.94-40.01,42.25-90.12,73.71-145.85,90.83-87.83,26.99-188.17,4.65-262.21-47.66-36.1-25.51-66.17-57.71-88.17-95.73l-13.17-25.41-2.45,32.12c-.09,1.23-2.24,3.03-3.37,3.17-1.42.17-3.74-1.94-3.61-3.67l3.36-43.69Z"/><path class="cls-1" d="M447.73,117.38c-30.96,1.81-60.65,1.25-91.21,1.19-15.67-.03-30.62.3-45.9-.82-8.98-.66-14.77-6.44-15.47-15.22-2.34-29.33-3.18-58.27-.19-87.48.78-7.66,6.94-13.34,14.52-13.52l41-.95,61.83-.59,34.5,1.08c7.55.24,14.51,4.54,15.06,12.09l1.72,23.43c1.68,22.81,1.3,44.91-1.65,67.59-.88,6.77-6.38,12.73-14.22,13.19ZM387.18,63.6l63.63-54.97c-4.5-1.3-8.83-1.82-13.3-1.92l-30.09-.7-87.13,1.04c-5.12.06-9.63.41-14.23,2.12l65.03,55.65c4.49,3.84,11.41,2.81,16.07-1.22ZM455.71,106.52c3.47-25.16,3.04-47.47,1.94-70.92-.06-7.94-.14-15.57-1.97-23.41l-49.72,44.12,49.75,50.21ZM301.93,106.46l49.7-49.66-49.85-43.56-2.38,20.35c-.3,24.11-.35,47.53,2.54,72.86ZM306.28,110.3c5.14,1.52,9.91,2.28,15.27,2.27l93.83-.08c12.14,0,23.08-.32,36.03-1.94l-49.43-50.79-11.85,9.45c-6.91,5.51-16.45,5.58-23.39.05l-11.25-8.99-49.21,50.02Z"/><path class="cls-1" d="M672.46,260.17l-35.37-24.36c-1.23-.85-1.88-4.09-1.02-5.22s3.98-1.02,5.36-.15l25.68,17.4c-24.74-70.44-71.55-125.47-136.51-160.27-12.76-6.84-25.01-11.85-38.56-16.6-1.94-.68-3.55-2.72-3.12-4.43.37-1.46,3.32-3.18,4.94-2.56,15.49,5.94,29.98,11.73,44.4,19.85,37.29,20.99,69.36,48.71,94.61,83.29,17.4,23.83,29.93,49.33,40.57,76.95l4.33-31.28c.17-1.22,2.09-3.32,3.27-3.33,1.69-.02,3.53,2.01,3.63,4.03l-5.9,43.18-1.7,3.08c-.48.86-3.76,1.03-4.62.43Z"/><path class="cls-1" d="M255.66,75.77c-76.62,28.78-141.46,95.61-167.9,173.87-.48,1.43-2.79,2.93-3.99,2.89-1.58-.06-3.2-2.99-2.53-5.01,9.9-29.69,24.76-56.61,43.73-81.45,33.34-43.63,76.98-77.02,128.12-97.09l-30.48-5.2c-1.41-.24-3.22-2.65-2.95-3.77s2.17-2.51,3.71-3.12l42.06,6.47,3.56,2.29c.99.64.08,3.93-.49,4.89l-23.05,34.02c-1.18.97-3.16,1.93-4.25,1.55-1.52-.53-2.13-3.53-1.64-5.2l16.1-25.15Z"/><path class="cls-1" d="M18.54,457.08c1.33.38,3.77,2.03,5.02,3.21-13.92-.11-26.41-13.01-22.98-27.8,2.48,11.73,6.02,21.14,17.97,24.59Z"/><path class="cls-1" d="M734.75,437.25l-76.22,2.28-28.02-.81c-7.61-.22-13.16-5.99-14.81-13.5l-7.62-2.21c-6.92-2.01-10.27-9.13-8.02-15.96,4.47-13.61,8.53-26.92,9.69-41.34l3.64-45.07c.96-11.89,10.31-19.52,22.6-17.65l1.79-8.18c.78-3.54,3.88-6.96,6.7-7.8,4.22-1.26,8.8-.61,11.27,3.45,1.73,2.83,2.37,7.26,2.84,10.76l41.4.13c.4-3.76,1.19-7.95,3.24-10.98,3.09-4.58,10.26-5.64,14.34-1.84,3.49,3.24,4.08,8.81,4.37,13.52,5.99.65,12.57.96,17.46,4.61,5.56,4.15,8.25,11.3,8.72,18.4,2.11,31.64,2.96,62.62,2.19,94.44-.21,8.71-5.76,17.48-15.57,17.77ZM652.69,314.38l-.45-18.66c-.04-1.48-2.74-4.11-4.19-4.02-6.61.41-6.66,13.66-4.75,24.12.32,1.77,3.87,3.67,5.5,3.43,1.45-.21,3.94-3.05,3.89-4.87ZM715.52,295.51c-.2-1.56-2.9-3.97-4.34-3.75-6.56,1.01-6.3,14.51-4.66,24.66.23,1.42,3.21,3.01,4.54,3.17,6.46.79,5.89-13.02,4.46-24.08ZM738.01,338.25l1.36-17.72c.46-5.95-4.21-10.99-10.07-11.73l-7.32-.93c-.24,5.18-.4,10.08-3.31,13.78s-7.67,3.93-11.89,2.29c-3.16-1.23-6.05-5.04-6.36-9.26l-.56-7.67-41.37-.08-.7,9.06c-.27,3.46-3.67,7.38-6.37,8.15-3.51,1-7.78.33-10.5-2.04-3.44-3-4.07-8.12-4.18-12.98-6.97-2.81-16.59,2.06-17.14,10.47l-1.14,17.38,58.01-.13,61.54,1.41ZM706.43,394.8c3.12-1.47,8.17-1.52,11.61-1.77,6.31.11,11.37-3.71,13.08-10.02,3.44-12.69,4.98-26.14,6.51-39.21l-48.2-1.15-71.54-.16c-1.48,22.77-4.98,45.17-12.45,67.01-1.52,4.44,2.52,8.1,6.45,8.75l74.32,4.13c2.86.16,7.04-1.19,8.69-2.8,5.5-5.35.09-19.4,11.53-24.77ZM635.97,433.77l70.44-1.42,26.01-.67c7.62-.2,12.23-5.51,12.4-13.26.5-23.39.44-46.28-1.38-70.23l-6.66,37.57c-7.82,22.33-28.18,43.06-52.38,42.01l-62.86-2.72c1.97,5.6,7.71,8.85,14.43,8.71ZM704.5,406.14l-2.07,12.03c9.23-4.73,16.12-11.27,22.23-20.08l-12.32,1.2c-3.73.36-7.06,2.36-7.84,6.85Z"/><path class="cls-1" d="M729.96,360.69l-2.35,7.21,1.23-15.42c1.48,2.33,1.97,5.6,1.12,8.21Z"/><path class="cls-1" d="M123.93,446.42l-57.44,1.01c-12.98.23-25.55.86-38.16-.49-9.01-.96-14.68-7.61-14.78-16.41l-.41-37.06c-.37-33.16-.68-65.44.69-98.45.29-7.1,5.73-13.54,12.89-14.13,24.07-1.96,47.39-1.77,71.58-.08,2.01.14,5.2,1.9,6.56,3.33l34.2,35.94c1.29,7.62,1.63,14.68,1.82,22.57.73,30.15,1.13,59.59-.82,89.61-.54,8.35-7.5,14-16.13,14.15ZM124.82,440.52c6.24-.14,9.78-5.34,10-11.12,1.32-34.83,1.22-69.4-.45-104.27l-21.9.41c-8.32.16-15.55-6.13-15.45-14.59l.28-24.34c-22.77-1.48-45.11-1.86-67.75-.27-5.73.4-10.1,4.54-10.18,10.24l-.81,57.01.64,76.91c.05,5.72,3.98,10.21,9.49,10.83,11.32,1.27,22.23.82,33.78.56l62.35-1.37ZM112.82,319.77l17.33-.25-26.83-28.38c-1.02,14.14-2.69,28.82,9.5,28.64Z"/><path class="cls-1" d="M114.32,364.52l-73.44-.05-2.7-1.11c-.54-.22-1.3-1.81-.91-2.24.53-.57,2.43-1.61,3.32-1.62l21.86-.31,51.45-.44,2.93,2.42c.8.66-1.31,3.05-2.52,3.35Z"/><rect class="cls-1" x="73.89" y="339.97" width="5.99" height="79.54" transform="translate(-302.89 456.4) rotate(-89.97)"/><path class="cls-1" d="M85.51,401.36h-45.71s-2.67-2.38-2.67-2.38c-.75-.67,2.1-2.62,3.09-3.03l45.25-.05,2.73,2.42c.66.59-1.36,2.29-2.69,3.04Z"/><path class="cls-1" d="M78.7,344.84l-38.91-.33-2.59-2.43c-.57-.53,1.54-2.23,2.38-2.84l38.73-.2,2.84,2.46c.66.57-.9,2.02-2.45,3.34Z"/><path class="cls-1" d="M124.72,429.64l1.81-21.26c.12-1.38.65-2.91,1.74-4.04l.34,15.34c-.4,3.54-1.22,7.19-3.89,9.96Z"/><path class="cls-1" d="M27.39,319.75c0,.34-1.63,2.19-1.65,1.85l-.12-2.05c-.38-6.62-1.05-13.49,1.98-19.44l-.2,19.64Z"/><path class="cls-1" d="M47.03,293.59l-17.89,3.19c4.68-5.39,11.62-5.21,17.89-3.19Z"/></svg>