<?xml version="1.0" encoding="UTF-8"?><svg id="Layer_1" xmlns="http://www.w3.org/2000/svg" viewBox="0 0 422.83 380.51"><defs><style>.cls-1{fill:#55e4d3;}</style></defs><path class="cls-1" d="M0,334.11V46.3C4.05,21.09,24.58,0,51.28,0h320.25c26.74,0,47.82,21.33,51.31,47.26v285.85c-3.69,27.06-25.6,47.34-52.97,47.34l-316.09.05c-27.62,0-49.47-19.51-53.77-46.41ZM401.62,51.31c-.81-17.19-14.69-30.3-31.77-30.3H52.96c-17.8,0-31.72,14.18-31.86,31.66-.03,3.75.09,7.12.34,10.63h379.93s.24-11.99.24-11.99ZM370.31,359.31c18.33-.58,31.41-14.74,31.41-32.51l-.09-242.36-380.5.03.08,244.02c0,17.4,14.76,30.62,31.74,30.82h317.37Z"/><path class="cls-1" d="M158.68,232.45h-84.85c-5.68,0-10.42-4.71-10.42-10.4v-63.59c0-6.19,4.9-10.61,10.93-10.6h84.14c5.93.01,10.64,4.72,10.63,10.61l-.02,63.5c0,5.46-4.48,10.48-10.42,10.48ZM147.96,169.03h-63.44v42.28h63.44v-42.28Z"/><path class="cls-1" d="M348.77,295.87H74.46c-6.58.01-11.05-4.78-11.01-10.61.04-5.73,4.43-10.51,11-10.51h273.91c6.27,0,10.54,4.29,10.96,9.76s-3.44,11.36-10.55,11.36Z"/><path class="cls-1" d="M348.81,169.01l-126.56.02c-6.26,0-10.6-4.69-10.79-10.22-.19-5.88,4.26-10.95,10.78-10.95h126.17c6.3,0,10.74,4.49,10.92,10.21.17,5.41-3.76,10.94-10.52,10.94Z"/><path class="cls-1" d="M348.58,232.46l-126.85-.02c-6.21,0-10.42-5.51-10.29-10.77.14-5.66,4.45-10.38,10.78-10.38l127.03.03c5.98,0,10.01,5.39,10.09,10.3.1,5.69-4.06,10.84-10.77,10.83Z"/></svg>