<?xml version="1.0" encoding="UTF-8"?><svg id="Layer_1" xmlns="http://www.w3.org/2000/svg" viewBox="0 0 275.7 352.4"><defs><style>.cls-1{fill:#55e4d3;}</style></defs><path class="cls-1" d="M134.2.62c-2.4.9-4.3,6-3.2,8.7,1.8,4.8,7,5.9,11.4,2.5,6.3-5-.5-14.3-8.2-11.2ZM141,4.62c0,2-2.4,1.1-2.8-1-.2-1.2.1-1.5,1.2-1.1.9.3,1.6,1.3,1.6,2.1Z"/><path class="cls-1" d="M136.5,25.52c-.3,2.7-.8,6.6-1.1,8.7-.4,3.5-.3,3.8,1.8,3.5,2.2-.3,2.3-.7,2-7.8-.4-8.9-1.8-11.2-2.7-4.4Z"/><path class="cls-1" d="M129.3,42.62c-1.2.2-2.7,1.1-3.3,1.9-1.1,1.2.5,1.4,11.4,1.4,12.5,0,15.6-.9,10-3-2.5-1-13.7-1.1-18.1-.3Z"/><path class="cls-1" d="M127.1,50.02c-19.9,2.2-34.3,7.8-49.9,19.6-22.4,17-33,41.8-32,74.5.4,12.5.4,12.8,4.3,20.5,7.3,14.1,17.5,18.8,49,22.5,14.7,1.6,63.7,1.6,78.3-.1,32.9-3.8,44.2-9.1,51-24,2.3-5,2.6-7.1,3-20.1.3-12.1,0-16.3-1.8-25-4.2-20.6-14.6-36.9-31.5-49.7-18.1-13.6-46.1-20.8-70.4-18.2ZM165.5,80.52c35.3,5.7,45.2,15.5,48.5,47.9,1.7,15.6,1,23.4-2.4,28.5-7.6,11.5-30.5,15.7-80.9,14.7-26.7-.5-42.4-1.9-51.6-4.6-5.6-1.7-10.8-5.8-13.8-10.8-2.7-4.6-2.8-5.3-2.7-17.8.1-27.1,5.6-41.2,18.9-49.1,16.2-9.5,54.8-13.5,84-8.8Z"/><path class="cls-1" d="M116.5,83.32c-17.6,2.4-30.7,6.6-37.9,12.1-7.3,5.5-11.6,18.6-13.2,39.6-1.5,21.3,4.4,27.8,28.1,30.8,26.2,3.3,49.8,3.8,74.5,1.6,32.3-2.9,41.8-7.1,43.6-19.3,1-6.9-2-32.4-4.7-39.6-2.7-7.5-8.5-13.8-15.6-17.2-16.7-7.9-49.6-11.4-74.8-8ZM171.4,89.92c.8.9-.3,1-4.9.5-8.5-1-10.7-2.7-2.6-2.1,3.5.2,6.8,1,7.5,1.6ZM184.2,93.02c8.1,3.1,12.7,6.7,15.4,12.2,1.4,2.7,2.3,5.4,2.1,6-.3.7-.8.3-1.3-.8-2.8-7.1-9.6-13.2-18.4-16.5-3.9-1.5-6.1-3-4.2-3,.6,0,3.5.9,6.4,2.1ZM102,100.32c0,1.7-1.4,2.3-7.6,3.1l-4.9.6,2.8-2.5c3.1-2.9,9.7-3.7,9.7-1.2ZM182.1,100.62c3.2,1.9,4.1,5,1.2,3.8-1-.4-3.5-.9-5.6-1.2-3.9-.6-5.2-1.6-4.2-3.3,1-1.6,5.4-1.2,8.6.7ZM110.5,112.92c4.4,2.7,6.5,6.9,6.5,13.3,0,16.2-19.8,22.9-28,9.5-2.4-3.9-2.7-12.6-.6-16.6,4.4-8.4,14.1-11.1,22.1-6.2ZM184,114.72c10.9,10.9,4.9,28.2-9.8,28.2-10.8,0-18.6-13.8-13.4-24,2.6-5.2,7.4-8,14-8,5,0,5.8.3,9.2,3.8ZM127.1,140.52c2.1,2.6,6.6,4.4,10.9,4.4s8.8-1.8,10.9-4.4c1.8-2.1,3.1-2,3.1.3,0,2.8-4.7,7-9.3,8.2-7.1,1.9-16.1-1.3-18.5-6.5-1.6-3.5.4-5,2.9-2ZM209,146.32c0,6.2-2.2,9-9.6,12.6-8.8,4.1-11.2,3.4-2.7-.8,4.5-2.2,8.6-5,9.2-6.1s1.1-4,1.1-6.5.5-4.6,1-4.6c.6,0,1,2.4,1,5.4Z"/><path class="cls-1" d="M97.2,115.12c-1.8,1.8-1.5,7.7.3,8.4,1,.4,1.3,1.3,1,2.5-.8,2.3.8,2.5,2.5.4s3-1.9,3,.5,2.5,2.7,3.4.5c.7-2,3.3-1.9,4.5.2.9,1.7,1,1.7,1.7,0,1.2-3.3-1.4-9.6-4.9-11.7-3.6-2.2-9.7-2.6-11.5-.8Z"/><path class="cls-1" d="M167.2,116.92c-3.5,3.5-4.8,8-3.2,10.9,1.3,2.5,2.6,2.7,3.9.4.8-1.5,1.3-1.5,3.6-.5,3.5,1.6,4.5,1.5,4.5-.6,0-.9,1.5-2.4,3.3-3.2,4.1-1.9,4.5-4.3,1.3-7.5-3.7-3.7-9.5-3.5-13.4.5ZM176.6,117.62c-1,1-1.9-.5-1-1.8.6-1.1.8-1.1,1.2,0,.2.7.1,1.5-.2,1.8ZM177,121.02c0,.5-.4.9-1,.9-.5,0-1-.7-1-1.6,0-.8.5-1.2,1-.9.6.3,1,1,1,1.6Z"/><path class="cls-1" d="M231.4,112.62c1.9,6.9,2.9,15.6,3,27,0,7.3.4,13.3.7,13.3,1,0,1.9-7,1.9-15.8,0-5.3.4-8.1,1-7.7.6.3,1,3.9,1,7.8,0,11.6,1.7,15,3.8,7.8,2.8-9-.4-31.1-4.4-31.1-.7,0-1.4,1.2-1.6,2.7-.4,3-1.1,2-2.2-3-.4-1.5-1.3-2.7-2.2-2.7-1,0-1.4.6-1,1.7Z"/><path class="cls-1" d="M41,115.92c-.6,2.4-1.5,3.8-2.1,3.4-.6-.3-.8-1.7-.4-3.1.9-3.7-1.6-2.5-3.8,1.9-3.9,7.9-2.8,33.3,1.5,33.3,1,0,2.3.6,3,1.3,2.3,2.3,3.1,1.2,2.4-3.6-.6-4.4.6-23.5,2-33,.9-5.5-1.1-5.7-2.6-.2ZM39.2,134.92c-.2,6-.7,11-1.3,11-1,0-1.2-14-.3-18.9,1.3-6.1,1.9-2.9,1.6,7.9Z"/><path class="cls-1" d="M4.3,176.92c-3.2,1.3-4.3,4.1-4.3,11.2,0,12.5,5.2,25.8,14.6,37.2,6.3,7.7,14.7,14.6,17.7,14.6,1.1,0,3.9-2,6.3-4.4,4.8-5.1,13.4-21.4,13.4-25.6,0-7.3-34.6-34.2-43.5-33.9-1.1,0-3,.4-4.2.9ZM16.5,182.32c2.8,1.3,5.9,3.3,6.9,4.5,2.6,2.8,1.2,2.7-2.7-.3-1.8-1.4-5.3-3.4-7.7-4.5-2.5-1.1-3.8-2.1-3-2.1s3.8,1.1,6.5,2.4ZM35,197.02c0,1.1-1.6.4-4.2-1.9-3-2.5-2-3.5,1.2-1.2,1.7,1.2,3,2.6,3,3.1ZM47,205.92c.6,1.1.7,2,.2,2-1,0-3.2-2.1-3.2-3.2,0-1.6,1.9-.8,3,1.2Z"/><path class="cls-1" d="M257.5,179.42c-9.2,4.8-18.8,12-26.9,20.4-6.7,7-6.8,7.3-6.4,11.4,1,9,12,27,17.3,28.3,3.3.8,7.6-2,15.2-9.9,7.6-7.8,11.5-13.9,15.2-23.7,6.6-17.1,4.4-30-5-30-1.5,0-5.8,1.6-9.4,3.5ZM253,186.72c0,.8-9.5,8.2-10.4,8.2-1.7,0,1.3-3.4,5.2-6,5-3.3,5.2-3.4,5.2-2.2ZM272,193.42c0,1.4-.4,2.5-.9,2.5-.4,0-.6-1.1-.3-2.5.2-1.4.6-2.5.8-2.5s.4,1.1.4,2.5ZM269.4,202.12c-2.6,8.4-13.9,25.5-16.3,24.6-.6-.1,1.2-3.2,4-6.7,2.7-3.5,6.3-9.4,8.1-13.2,3-6.5,5.7-9.5,4.2-4.7ZM246.6,233.42c-2.1,1.6-3.2,1.3-2.1-.4.3-.6,1.4-1.1,2.3-1.1,1.5.1,1.5.2-.2,1.5Z"/><path class="cls-1" d="M82.5,191.82c-7.9,2.3-13.8,5.4-16.4,8.7-3.6,4.5-2.8,6,5.2,9.8,16.1,7.7,35.3,10.9,66.2,10.9s52.2-3.2,67.5-10.6c5.4-2.7,6.6-3.7,6.8-5.9.6-5-9.2-11.5-21-14-5.3-1.1-5.5-1.1-10.5,2.4-3,2.1-8.6,4.5-13.5,5.9-7.5,2.2-10.2,2.4-28.3,2.4-23.2-.1-29.3-1.2-41.3-7.5-4.1-2.2-7.8-4-8.1-3.9-.3,0-3.3.8-6.6,1.8Z"/><path class="cls-1" d="M101.6,191.72c-.7,1.1,2.5,2.3,12.4,4.7,8.7,2.1,32.6,3.1,41.6,1.6,7.8-1.2,20.9-4.9,20.1-5.7-.3-.3-2.9.2-5.9,1.1-6.1,1.8-22.2,3.2-19.8,1.7.8-.5,4.3-1.3,7.8-1.7,3.4-.4,6.5-1.2,6.8-1.7.4-.6-.4-.8-2.2-.5-1.6.3-7.4.8-12.9,1.2-16,.9-21.9,1.6-20.4,2.5.7.5-.7.6-3.2.3-2.4-.3-4.6-.9-4.9-1.3s-3-1.1-6-1.4c-3-.4-7.1-.9-9.1-1.2-2.1-.3-4-.1-4.3.4Z"/><path class="cls-1" d="M63,219.62c0,4.9.5,14,1,20.3,4.5,49.9,20.5,86.2,45.4,102.8,30,20,63.4,8.4,83.1-29.1,12.9-24.6,18.7-49.4,20.2-86.1.7-18.2,1.8-16.8-9.5-12.1-9.8,4.1-19.7,6.2-37.4,8.1-36.9,3.8-77.8-.5-97-10.2-2.6-1.3-5-2.4-5.3-2.4s-.5,3.9-.5,8.7ZM75.9,243.42c1.9,23.7,7,47,13.6,61.9,1.4,3.1,2.1,5.6,1.6,5.6-1,0-5.3-9.3-8.2-17.7-4.2-12.1-7.9-34.1-8.6-50.3-.3-8.5-.3-15.3-.1-15,.3.3,1.1,7.2,1.7,15.5ZM198,251.42c0,3-.4,5.7-1,6-.6.4-1-1.8-1-6s.4-6.4,1-6c.6.3,1,3,1,6ZM196,278.82c-1.6,10.1-5.2,20.6-11.1,32.6-4.9,9.8-11.1,18.6-12.3,17.4-.4-.4.4-2,1.8-3.6,3.7-4.4,10-16.5,14-26.8,3-7.9,4.7-14.6,7.3-29,1.3-7.5,1.6,1.2.3,9.4ZM102.3,326.82c1,1.8,1.3,3.1.7,3.1-1,0-5-5.8-5-7.4,0-1.4,2.3,1,4.3,4.3ZM166,336.72c0,1.2-6.1,4.5-6.8,3.7-.4-.4-.2-1,.4-1.2s2-1,3-1.8c2.1-1.6,3.4-1.9,3.4-.7Z"/><path class="cls-1" d="M216.6,223.62c-.4,5.4-.9,13.8-1.3,18.7-.5,7.3-.3,8.8.8,8.4.8-.3,1.5-2.1,1.7-4.3.2-2.1,1.1-4.4,1.9-5,1.4-1,1.5-2.7.9-11.6-1.1-18.6-3-21.4-4-6.2Z"/><path class="cls-1" d="M56.6,216.62c-.2,1-1,4.6-1.7,8-.6,3.5-1.8,6.8-2.5,7.4-.8.6-1.4,1.7-1.4,2.4,0,2.1-4,6.2-4.6,4.7-.6-1.3-2.4-1.7-2.4-.4,0,.8,7.1,5.2,8.5,5.2.4,0,.4-1.8,0-4-.7-4.3.2-8.7,1.6-7.3.5.5,1.7,4.4,2.8,8.7,1.9,7.5,2.7,9.4,3.5,8.5.2-.2.1-8-.3-17.3-.4-11.5-1-17.1-1.8-17.3-.6-.2-1.4.4-1.7,1.4Z"/><path class="cls-1" d="M224.2,240.42c-1.6,3.5-1.5,3.7.8,2.5,1.1-.6,2-2,2-3,0-2.8-1.5-2.5-2.8.5Z"/></svg>
