<?xml version="1.0" encoding="UTF-8"?><svg id="Layer_1" xmlns="http://www.w3.org/2000/svg" viewBox="0 0 668.22 532.73"><defs><style>.cls-1{fill:#55e4d3;}</style></defs><path class="cls-1" d="M263.72,75.43c-1.42-2.13-2.62-4.69-2.98-7-1.28-8.31-8.4-7.91-11.61-10.12-.58-.4,1.32-2.27,2.07-2.38,11.06-1.62,7.12-11.71,11.7-15.78l4.97,12.85,10.02,3.85c-3.21,3.08-9.19,3.38-10.16,6.35l-4.02,12.24ZM263.51,64.71c1.25-2.91,3.96-6.1,6.25-7.24-2.9-1.41-5.5-4.45-7.03-7.52-1.13,2.69-3.7,6.08-5.63,7.58,2.32,1.95,4.72,4.73,6.41,7.19Z"/><path class="cls-1" d="M530.17,193.49c-11.21,3.69-5.86,12.42-10.8,14.37l-3.49-10.09c-.68-1.96-5.05-3.48-6.8-4.78l-1.97-1.47c-.4-.3,1.78-1.73,2.33-1.72,8.25.16,8.68-11.21,9.4-12.46.31-.54,2.25-.92,2.56-.38,1.55,2.68.96,12.53,8.61,12.63.74,0,3.31,1.41,2.86,1.92s-1.85,1.71-2.71,1.99ZM519.59,197.54l6.15-6.14c-2.37-1.18-4.74-4.22-5.29-6.42-1.71,2.64-4.26,5.51-5.98,6.47l5.13,6.08Z"/><path class="cls-1" d="M248.13,105.98l-19.35-7.22c-.74-.28-1.96-1.81-2.34-2.3s2.25-1.64,2.97-1.36l19.96,7.64c.31.12,1.33,1.58,1.56,1.81.34.34-2.26,1.64-2.8,1.43Z"/><path class="cls-1" d="M533.02,92.48l-21.34,10.27c4.28-7.6,12.78-9.1,19.26-12.86l2.43-.49c.71-.14.41,2.71-.35,3.08Z"/><path class="cls-1" d="M256.12,96.36c-5.59-2.51-9.29-6.25-14.46-10.79l2.16-2.38c4.86,4.49,9.9,6.01,12.29,13.16Z"/><path class="cls-1" d="M517.55,86.08l-12.55,9.47c-1.18-4.22,8.88-12.43,12.68-12.92.78-.1.51,2.97-.13,3.45Z"/><path class="cls-1" d="M531.64,114.59c-7.01.75-11.17,2.94-17.4-.07l17.48-3.28-.08,3.35Z"/><path class="cls-1" d="M249.8,116.91c-5.28,2.1-11.03,1.87-16.9-.18,4.75-3.27,11.18-2.99,16.9.18Z"/><path class="cls-1" d="M271.48,228.23c-1.95-3.66-3.06-5.63-7.52-7.92l3.65-2.2,3.84-6.32c1.07,4.1,3,6.59,7.4,8.08-3.56,2.25-5.17,3.79-7.36,8.36Z"/><path class="cls-1" d="M643.5,519.24c-2.95-35.51-.59-69.92-1.61-105.58l-105.08,68.99c-15.11,9.92-16.52,10.95-35.78,6.56l-.22,43.14-2.13.38c-.38.07-.69-1.12-.87-1.74l-.76-42.41-194.92-32.83-266.11-44.6-1.37,109.47c-3.8-36.43-2.02-72.76-2.71-110.11l-30.77-5.72L0,381.13c-.06-1.31,2.51-3.87,3.64-4.72l92.32-42.76c.69,2.74-1.3,4.52-3.8,5.68L5.58,379.53l111.78,18.22,313.4,50.28,89.03,14.57,123.43-79.22,17.5-11.14-40.96-5.83-1.72-.98c-.47-.27-1.19-1.39-.69-1.58l2.77-1.08,42.22,5.71c8.23,1.33,5.89,16.02,4.48,28.02l-20.63,14.27c-.75,35.89.77,71.77-2.66,108.46ZM522.57,487.8l141.49-93.58.13-20.3-4.23,3.26-137.81,88.23.41,22.38ZM4.1,382.66l-3.48,21.49,518.24,84,3.48-21.49L4.1,382.66Z"/><path class="cls-1" d="M590.77,381.78c4.88,22.29-31.65,23.04-50.21,16.94-6.14-2.02-9.45-6.58-9.63-12.77l-1.43-48.97c-.15-5.01,2.46-8.8,7.29-10.41,15.35-5.12,32.32-5.21,47.8-.4,6.22,1.93,8.92,7.25,7.23,14.12,10.65-2.79,18.47,3.72,20.25,13.72,2.51,14.09-6.08,27.19-21.3,27.77ZM580.69,334.06c.97.27,2.76,2.04,3.39,1.49l3.45-3.02c-1.79-1.46-4.19-3.06-6.46-3.64-14.27-3.68-35.09-4.09-46.67,3.44,3.35,5.27,6.06,2.8,9.64,1.65,11.8-3.79,24.89-3.15,36.66.08ZM587.23,385.48l1.38-48.49c-16.09,7.52-38.93,7.47-55.45-.15l1.53,49.08c.14,4.55,3.08,7.99,7.13,9.38,12.58,4.01,25.99,4.24,38.45.04,4.26-1.43,6.82-4.78,6.96-9.87ZM591.32,374.05c-.06,1.57-.23,3.81.33,3.73l2.87-.41c9.82-1.4,15.19-11.49,14.17-21.22-.43-4.07-2.29-8.08-5.1-10.31-3.17-2.52-7.39-2.91-11.57-2.14l-.08,4.51c5.86-1.56,10.51,1.64,11.76,7.06,2.07,8.97-3.2,17.21-12.38,18.78ZM600.52,356.49c-.49-3.89-5.27-6.64-8.53-4.52l-.35,18.15c7.18-1.22,9.67-7.41,8.88-13.63Z"/><path class="cls-1" d="M95.93,366.49c-.68,3.71-.46,10.35,3.43,11.12l39.41,7.78c2.97.59,6.76-.06,9.6-.93l25.4-10.71,1.95-1.72c.51-.45-1.04-1.76-1.86-2.01l-28.96,11.94-1.56-2.08,26.21-11.35-23.57-4.79c-.91-.18-2.58-1.53-2.36-2.37s2.31-1.68,3.19-1.51l27.65,5.56c3.14.63,7.82,6.96,4.21,9.19-10,6.17-21.2,10.33-32.29,14.78-1.61.65-5.8.26-7.59-.08l-37.88-7.24c-6.81-1.3-10.97-8.07-9.03-15.2l10.23-37.78-42.29-6.94c-7.14-1.17-13.16-5.97-14.07-14.27l-15.98-146.56c-.41-3.74-.71-7.96,1.83-11.13,3.94-4.92,11.8-12.14,19.42-11.35l162.12,16.87c7.54.78,13.08,6.92,13.65,14.84l11.3,158.3c.87,12.23-13.22,19.1-21.96,17.77l-68.99-10.5c-.29-.68-.4-2.26-.39-3.89l69.47,10.53c1.61.24,4.61-.44,5.62-1.39,1.15-1.09,2.65-4.46,2.49-6.58l-11.69-155.49c-.39-5.12-3.36-11.21-9.16-11.83l-160.35-17.32c-2.42-.26-5.86-.31-7.22.81-1.28,1.05-2.78,4.29-2.57,6.31l16.05,149.22c.52,4.87,4.02,10.55,8.72,11.31l45.17,7.29,7.39-26.17,1.86-2.7c.44-.64,1.98,2.15,2.12,2.63l-18.73,67.68ZM227.28,340.78c4.35-1.65,7.4-5.94,7.04-11.01l-11.51-159.2c-.55-7.6-5.8-10.55-12.28-11.24l-158.34-16.78c-4.13-.44-8.11.79-10.51,3.52l160.35,17.55c8.07.88,13.83,6.83,14.44,15.06l11.22,150.24-.41,11.86Z"/><path class="cls-1" d="M140.79,382.24c-3.44-.15-6.19-5.23-5.72-9.4l6.8-59.85,2.71-13.69-32.22-4.57c3.29-4.16,7.25-2.82,11.08-2.25l24.28,3.58c1.27,1.69.59,5.36-.71,7.09l-7.9,66.81,1.68,12.28Z"/><path class="cls-1" d="M151.54,325.82c-1.34-7.1-2.61-14.25-1.72-22.33,2.6,7.29,2.46,14.07,1.72,22.33Z"/><path class="cls-1" d="M447.15,396.81c8.65-5.6,16-11.93,21.48-22.28-.04,10.88-9.76,20.59-21.48,22.28Z"/><path class="cls-1" d="M377.45,368.5l-10.25-2.15-7.3,4.33,6.29,1.93c-.35.92-3.33,2.55-4.59,2.19l-8.19-2.35,8.89-6.44-10.05-1.92-6.53,4.66,6.03,1.52-.47,1.44c-.15.46-1.44.92-1.92.84l-82.92-13.35,9.59-6.67-7.37-1.95c5.41-3.81,11.02,3.56,18.21-.61,9.77,6.85,15.83-1.76,16.03-1.53l-1.95-2.23c2.22-.99,5.44-.52,7.52,1.51l-7.32,5.6,8.9,1.25c1.96.27,5.61-2.91,6.97-4.08l-6.22-1.02.83-2.82,57.59,9.12c-5.25,2.54-7.17,3.03-11.88,6l9.29,1.93,9.96-5.78c-1.75,4.02-2.5,4.51-4.51,6.92l13.18,1.6c.4.05,1.99.98,1.69,1.11l-1.49.67-10.18,5.21,3.5,1.18c3.67,1.24-1.21,4.37-11.28.2l9.95-6.28ZM324.27,356.64c1.67.2,5.26-2.72,6.37-3.82-7.14-2.09-10.25-2.69-15.55,2.73l9.18,1.09ZM290.77,354.77l-9.79-1.99-7.11,4.7c7.52,1.59,10.9,2.71,16.9-2.71ZM339.49,359.09l5.7-4.06-9.99-1.77-6.29,4.37,10.58,1.46ZM299.25,361.56l6.04-4.05c-6.5-2.94-11.81-1.91-16.38,2.33l10.33,1.72ZM359.16,357.35c-5.38-2.16-11.45-2.61-15.43,2.23,5.92,2.26,10.76,2.39,15.43-2.23ZM313.65,363.74l6.74-4.56-10.38-1.52-6.37,4.28,10.01,1.8ZM334.02,361.37l-8.94-1.31c-1.67-.24-5.01,2.52-6.67,4.1,7.19,2.09,10.45,2.33,15.61-2.79ZM348.05,363.43l-8.95-1.17c-1.96-.26-5.6,3.17-6.86,4.31,7.18,2.16,10.21,2.24,15.8-3.14Z"/><rect class="cls-1" x="306.43" y="283.53" width="3.87" height="178.32" transform="translate(-108.24 618.51) rotate(-80.94)"/><path class="cls-1" d="M436.3,245.79c-1.91,2.46-3.52,2.18-6.4,3.28l-6.52,2.49c-27.52,5.58-55.87,5.31-82.9-1.8-5.21-1.37-10.35-3.2-12.78-8.17,29.69,12.92,69.93,12.79,100.79,5.93l7.81-1.73Z"/><rect class="cls-1" x="339.13" y="319.78" width="3.63" height="49.08" transform="translate(-49.96 630.66) rotate(-81.51)"/><path class="cls-1" d="M501.7,291.21c-1.87-21.56,5.64-43.48-15.31-56.68,9.12,2.15,15.18,9.96,16.8,19.3,2.08,11.97,2.68,24.75-1.49,37.39Z"/><path class="cls-1" d="M264.8,356.52c.35.08-2.08,2.41-2.87,2.24l-11.07-2.37,9.47-5.99-13.28-2.8c.26-.61,3.11-2.34,4.18-2.12l17.61,3.59-10.15,5.71,6.1,1.73Z"/><path class="cls-1" d="M379.09,321.81c-2.64-9.1,16.68-22.86,27.61-20.56-11.26,5.2-21.09,9.35-27.61,20.56Z"/><path class="cls-1" d="M276.36,284.13c-11.91,5.04-17.9,13.12-22.34,25.56-2.19-12.47,9.4-26.54,22.34-25.56Z"/><path class="cls-1" d="M435.01,391.74c10.47-5.38,20.27-10.99,23.65-23.63,2.05,3.98.26,6.9-1.13,10.4-5.2,6.86-12.39,14.08-22.52,13.23Z"/><path class="cls-1" d="M266.51,278.94c-10.34,4.34-15.32,12.51-19.96,22.83-2.92-9.91,11.21-24.42,19.61-24.46.31,0,.38,1.27.35,1.64Z"/><path class="cls-1" d="M328.95,263.44l3.75,34.06c-5.57-11.87-5.77-24.53-5.69-37.55,1.01.56,1.76,1.95,1.93,3.49Z"/><path class="cls-1" d="M496.32,341.19c.01-13.53,1.18-26.18,4.27-39.48,1.41,13.26-.99,26.52-4.27,39.48Z"/><path class="cls-1" d="M396.1,295.38c-8.83,4.39-16.25,9.69-23.65,18.4,2.28-10.19,12.32-18.34,23.65-18.4Z"/><path class="cls-1" d="M390.23,370.38c7.69-3.9,23.42,1.46,19.62,2.8-.38.13-1.95.69-2.38.6l-17.24-3.41Z"/><rect class="cls-1" x="389.48" y="369.49" width="3.14" height="16.51" transform="translate(-43.56 704.44) rotate(-80.94)"/><path class="cls-1" d="M423.47,365.69c-5.85,3-12.04,1.13-17.52-1.94,6.25-1.87,12.03-.34,17.52,1.94Z"/><path class="cls-1" d="M259.36,323.53c-6.1,1.66-12.97,1.1-18.83-2.24,6.45-1.49,12.68-.37,18.83,2.24Z"/><path class="cls-1" d="M250.09,355.23c-5.68,1.62-10.74.2-15.47-1.92,5.38-2.04,10.63-1.15,15.47,1.92Z"/><path class="cls-1" d="M423.6,346.56l21.57-11.81c-5.01,7.24-13.2,11.38-21.57,11.81Z"/><path class="cls-1" d="M427.68,314.76c-4.63,1.88-9.46,3.34-15.55,4.56,3.04-4.59,9.29-6.23,15.55-4.56Z"/><path class="cls-1" d="M461.71,249.36c-6.26,4.2-10.03,8.4-13.39,14.82-.59-7.44,5.52-16.11,13.39-14.82Z"/><path class="cls-1" d="M320.38,254.92c-.71,25.86,5.02,50.34,13.06,74.95l35.25,4.96c-.47.68-1.36,1.5-2.66,2.61l-44.23-5.13c-1.06-.12-2.59-2.03-2.7-3.42l10.27.89c-4.84-13.68-8-27.17-10.79-42.2l-6.46,14.07c5.3,7.98,2.48,17.05-.05,24.82,2.83,4.02,6.33,10.79.72,14.45-3.74,2.44-9.05-.58-11.44-4.03-.79,3.12-1.74,6.95-2.97,9.46-.7,1.43-5.2,2.42-6.66,1.77-1.64-.72-3.43-2.83-5.24-5.1-.84,3.05-4,5.78-6.99,5.71-4.09-.09-6.6-3.5-6.9-8.01-2.72,2.47-5.68,4.74-8.05,4.53-4.3-.39-5.62-4.22-5.42-9.04l-14.35,7.6-29.87,14.22c-1.08,2.17-1.02,5.67-.13,8.71l182.45,29.38c0-4.15-.08-5.4,1.99-8.11l1.1,7.64,40.25-24.09c2.46-1.47,3.41-4.15,2.74-7.21l-12.92,7.09-31.35,16.32c.06-2.93,1.59-4.17,3.57-5.23l37.69-20.36-17.58-3.34c1.52-.94,4.66-2.27,6.28-1.95l16.21,3.2c2.07.76,2.56,6.56,1.76,9-.75,2.28-3.32,4.96-6.22,6.69l-35.12,20.88c-4.14,2.46-8.58,3.3-13.91,2.43l-178.45-29.04c-3.96-3.61-3.85-10.71-.86-14.7l43.81-20.98c1.13.23,2.97.02,3.34-.62l4.34-7.69c-4.21-18.25,10.02-35.05,28.36-36.47,3.12-6.82,6.57-12.59,10.63-18.4-3.7-8.27-3.03-16.77,1.74-24.58,3.99-6.53,11.07-10.34,19.53-11.52l10.99-6.93c-25.87-6.41-45.12-15.9-52.69-43.93-7.46-2.45-14.27-6.81-16.81-14.99-5.22-16.84-4.13-41.2,11.29-50.45,9.3-52.24,48.69-81.37,101.05-84.01l1.79-11.49c-6.05-2.73-8.71-8.33-7.17-14.25,1.4-5.37,6.72-9.47,12.72-8.99,5.46.44,10.41,4.75,11.19,10.78s-3.03,11.36-9.15,13.16l.47,10.7c53.43,2.99,95.36,32.07,102.81,87.18,16.6,8.69,16.26,33.03,10.24,49.78-3.34,9.3-12.75,12.01-19.56,16.93-8.44,17.98-17.85,27.35-37.62,35.64l10.38,4.68c5.02,2.26,8.87,6.84,11.39,11.71,11.96,2.86,19.66,13.04,20.24,25.39.46,9.72-4.34,17.41-11.4,23.18.49,18.86.07,38.22-4.05,56.72l41.14,4.96,7.66-66.81c3.02-26.32.34-51.37-26.83-58.44-10.56-2.75-21.43-2.74-32.38-6.53,12.73-2.48,24.72.64,36.2,3.79,25.04,6.85,30.13,32.5,27.24,57.18l-8.34,71.16,9.11,1.84,1.84.56c.58.18-.54,2.32-.89,2.48l-70.6-8.25-1.99-1.03c-.33-.17-.34-.67-.08-.89.42-.36,2.35-1.37,2.89-1.32l11.49,1.07c2.57-15.62,4.35-30.79,4.18-47.24-2.95,10.56-6.72,19.8-11.93,29.44-2.29,4.23-3.63,9.36-7.15,13-11.43,11.83-28.91,18.22-45.02,16.81-1.95,3.82-5.16,8.54-9.33,9.76-4.61,1.35-7.01-3.05-7.91-6.09-2.84,2.07-6.35,3.33-9.33.89-2.08-1.71-3.03-5.48-2.82-8.36-2.73.72-6.17,1.1-7.89.13-1.56-.88-2.84-4.82-2.42-6.68,1.94-8.5,9.03-12.22,16.2-15.15,2.8-5.53,6.02-11.53,11.79-15.1,14.05-8.69,30.09-13.27,47.01-10.23l6.64-18.13c-12.29-7.14-13.55-22.61-6.89-34.71,4.1-7.46,10.49-11.69,19.36-13.09-3.31-7.39-19.03-14.47-25.14-14.13-4.81.26-11.38,2.03-15.9,3.37-10.87,14.06-38.16,14.17-55.85,9.68-4.96-1.79-9.03-4.27-11.47-8.64-5.94-2.25-12.1-2.17-17.16,1.6-9.35,3.31-15.08,11.39-15.37,22.14ZM392.78,12.11c0-4.6-3.73-8.33-8.33-8.33s-8.33,3.73-8.33,8.33,3.73,8.33,8.33,8.33,8.33-3.73,8.33-8.33ZM431.9,53.51c29.42,13.91,45.45,41.03,49.09,72.33l6.29-2.35c-3.62-31.15-21.41-58.77-50.2-72.68-32.88-15.88-71.34-16.65-104.59-1.39-27.51,12.63-45.58,37.98-51.03,67.41l4.18-.13c5.02-32.78,27.17-58.43,58.84-68.44,28.57-9.03,59.71-7.84,87.41,5.26ZM363.85,60.85c3.44-4.63,7.19-6.39,12.41-7.9l.67-6.81c-39.14,1.63-73.72,21.23-85.04,60.07,17.8-27.96,39.77-39.09,71.96-45.36ZM434.64,70.88c16.36,7.7,27.74,19.65,37.66,34.58-6.17-22.23-22.04-38.87-42.02-48.7-13.07-6.53-26.34-9.18-41.43-10.56-.14,2.07.14,5.26.76,6.74,4.87,1.92,8.34,4.41,11.65,7.8,11.52,2.15,22.43,4.92,33.37,10.15ZM398.66,64.97l-5.25-6.5c-16.76-8.07-29.03,4.97-26.96,6.55l2.1,1.61c10.14,1.69,19.6,2.16,30.11-1.65ZM391.19,223.25c-4.02-.55-7.09-3.71-7.55-6.84s1.12-7.08,4.24-8.49c6.75-3.04,14.28-2.42,20.05,2.4,23.47-2.85,40.34-10.11,53.98-29.16-3.34-5.06-5.3-9.98-6.47-15.76-1.52-18.87-.72-41.64,17.16-49.31-12.85-30.16-38.8-45.93-69.86-50.83-5.05,7.94-24.13,7.21-35.01,4.92-2.37-.5-4.64-2.66-6.03-4.89-33.47,6.5-60.9,23.83-72.05,57.37-6.68,20.08-7.84,41.76-2.63,62.15,6.38,25,27.84,35.58,52.31,39.9,29.08,5.13,58.15,5.08,87.2-.13,21.32-3.82,42.31-14.39,49.91-36.14l-6.82-1.08c-15.27,20.79-36.09,29.85-61.35,31.59-4.53,4.44-10.33,5.21-17.08,4.29ZM472.3,184.05c4.95.28,9.26-.17,13.04-1.52-4.52-2.78-8.04-4.74-9.94-9.09-6.27-14.34-5.37-31.59,3.12-44.91l-2.78-8.79c-16.73,3.61-18.64,29.27-16.11,46.52.62,4.22,2.65,8.58,4.57,11.69l3.21-3.62c1.51-.26,4.93,1.4,5.14,2.89.29,2,.04,4.03-.25,6.83ZM281.44,179.76c-2.89-20.59-1.58-39.71,4.06-58.77-19.05,1.62-21.05,27.62-16.84,45.12,2.08,6.29,5.83,12.01,12.77,13.65ZM488.5,127.02c-12.57.34-19.23,33.19-7.52,48.02,1.56,1.97,5.1,3.65,7.38,3.57,15.87-.55,17.39-52.06.14-51.59ZM470.2,177.27c-8.78,9.62-15.5,19.16-26.3,25.67-11.34,6.83-23.7,7.94-36.71,11.91,23.92,1.38,55.33-14.39,63.01-37.57ZM404.83,214.62c-.17-1.27-1.86-4-3.2-4.29-8.45-1.86-15.35.27-14.54,4.94.22,1.28,2.08,3.98,3.51,4.27,7.8,1.56,14.83-.43,14.23-4.92ZM413.92,230.66c-19.69,1.89-36.97,2.18-55.65.77,3.4,3.83,7.66,5.33,12.18,6.19,13.39,2.56,36.98,2.45,43.46-6.96ZM316.24,259.34c-.43-6.95,1.71-13.38,3.51-19.17-9.44,2.27-14.86,10.82-15.2,19.73s4.98,17.27,12.98,20.41l-1.3-20.97ZM459.83,273.33c7.31-.97,12.41,3.44,13.45,11.31,11.76-8.77,11-26.78.04-35.92-6.34-5.28-15.38-5.24-21.68-.11-11.48,9.36-13.63,28.62-1.97,35.75.68-6.46,4.01-10.22,10.17-11.03ZM310.05,297.21l5.9-13.2c-5.02-3.01-7.66-5.27-11.13-9.46l-8.65,15.18c5.41,1.75,9.38,4,13.88,7.48ZM458.15,321.69c6.87-13.32,9.61-25.99,11.33-39.77-1.71-3.01-4.2-4.74-7.07-5.1-2.34-.29-6.98,1.13-7.75,3.64l-8.48,27.62c5.9,2.27,9.51,7.09,11.97,13.61ZM308.4,323.11c4.45-4.98,3.99-17.38-2.89-24.16-5.01-4.93-12.49-6.59-19.77-4.08-11.11,3.83-19.35,14.7-18.4,26.45,5.16-7,11.79-9.77,19.19-9.77,15.86-.01,19.48,14.23,21.87,11.55ZM413.1,353.93c21-1.17,46.91-16.59,39.84-34.2-6.89-17.18-47.14-10.29-62.6,7.08,9.27-.59,16.53,2.62,21.42,9.41,3.87,5.37,3.86,11.53,1.34,17.7ZM286.57,326.97c2.27-2.11,5.06-3.79,6.88-3.52,1.41.21,3.24,1.67,5.42,3.44.32.06,2.06-2.37,2.14-3.47s-1.44-3.14-2.51-4.05c-8.12-6.94-20.43-5.42-27.41,3.03l5.42,3.76c3.6-3.47,7.65-1.9,10.06.81ZM311.43,336.51c1.39-4.99-3.65-9.75-7.02-10.12-1.38-.08-3.4,3.86-2.6,4.98l2.92,4.1c1.21,1.7,6.09,3.24,6.7,1.03ZM270.52,326.53c-5.19,1.05-9.61,11.35-5.83,15.23,9.82-4.96,9.22-15.92,5.83-15.23ZM294.42,345c3.51-4.76,4.11-14.07-.7-17.53-2.41-1.73-5.19,3.1-4.83,5.4.76,4.76.05,10.21,5.53,12.12ZM281.46,327.62c-5.44-1.01-7.44,14.46-2,17.66,3.48,2.05,7.78-16.59,2-17.66ZM398.24,344.62c2.62-.22,6.3-.12,7.53,1.25s2.3,4.12,3.28,6.84c4.37-5.79,2-12.63-2.65-17.12-5.63-5.43-13.98-7.06-19.74-2.07l3.86,6.07c3.9-.99,6.14,2.02,7.72,5.03ZM379.15,347.69l5.93-6.41c.58-.62,1-2.82.46-3.37-3.29-3.29-15.42,4-14.06,12.51,2.35.79,5.75-.65,7.68-2.73ZM388.73,355.74l4.87-8.02c.47-.78.46-3.08.09-3.83s-2.83-1.06-3.65-.63c-5.26,2.75-10.44,9.88-7.33,16.4,1.81.06,4.9-2.07,6.02-3.91ZM402.41,348.07c-5.49.02-9.11,6.56-9.21,12.72-.02.95,1.46,2.94,2.36,2.97,5.78.19,11.9-15.71,6.86-15.69Z"/><path class="cls-1" d="M418.56,199.69c-30.35,5.76-73.06,5.56-102.7-2.48-11-2.99-19.68-10.92-21.52-22.6-2.34-14.87-1.69-30.29,2.6-44.61,3.72-12.45,12.69-21.01,25.27-23.93,28.82-6.68,68.23-7.67,96.09,1.57,11.28,3.74,19.2,12.38,22.16,24.03,3.55,13.99,4.45,28.77,2.48,43.01-1.89,13.66-11.24,22.52-24.38,25.01ZM421.82,194.82c9.62-2.62,15.89-10.08,17.28-20,2.09-14.9,1.33-30.28-3.14-44.65-2.84-9.12-9.48-15.88-18.36-18.79-26.93-8.84-65.23-8.06-93.07-2.01-10.76,2.34-19.4,8.58-23.09,19.15-5.13,14.7-5.8,30.72-3.27,46.24,1.61,9.88,9.46,16.52,19.19,19,28.69,7.31,76.9,8.59,104.46,1.07Z"/><path class="cls-1" d="M338.32,80.02l-24.88,17.1c5.1-9.33,15.2-15.94,24.88-17.1Z"/><path class="cls-1" d="M486.82,139.19c-5.28,9.44-3.27,18.53-1.43,28.45-8.03-10.04-3.66-34.14,5.15-33.28,2.22.22,5.13,3.05,4.65,5.53l-3.94-2.88c-.9-.65-3.81,1.06-4.43,2.17Z"/><path class="cls-1" d="M471.2,126.28l-6.97,17.79c-.02-8.09,2.59-17.4,6.97-17.79Z"/><path class="cls-1" d="M272.42,144.11c-.95-6.35-.71-13.46,5.34-17.84l-5.34,17.84Z"/><path class="cls-1" d="M405.51,175.98c-9.67,1.88-17.14-5.32-18.33-13.59-1.27-8.76,4.32-17.52,13.94-18.19,8.51-.59,15.25,5.92,16.29,13.9.95,7.35-3.06,16.17-11.9,17.88ZM400.6,155.95c-.16-1.07.55-3.18,1.26-4.53-1.26-2.88-5.61-2.85-8.12-.21-1.83,1.93-2.85,5.81-1.71,7.77l3.49-2.65c.69-.52,5.8,4.3,5.47,2.2l-.4-2.58Z"/><path class="cls-1" d="M331.78,145.48c8.68,4.66,10.61,19.19,3.09,26.03-4.27,3.88-9.82,4.85-15.06,2.61s-8.38-7.38-9.15-12.49c-.84-5.65.98-11.5,5.81-15.18,4.53-3.45,10.06-3.78,15.31-.97ZM324.14,154.99c-.28-1.49.8-3.61,2.12-5.85-2.93-1.79-6.69-1.35-8.8.85s-2.89,5.69-2.38,7.98l4.31-2.75c.7-.45,5.81,5.47,5.16,2l-.42-2.23Z"/><path class="cls-1" d="M377.12,174.64c-1.56,3.94-8.32,8.66-13.59,8.6-11.71-.13-16.38-10.92-13.64-11.01,3.69-.12,5.21,6.61,12.65,6.81,4.4.11,8.12-2.11,11.22-5.25l1.76-1.79c.37-.37,1.87,1.94,1.6,2.64Z"/><path class="cls-1" d="M412.65,134.12l-10.85-4.08-1.89-.58c-.57-.18,1.01-2.3,1.63-2.41,4.32-.75,12.85,1.88,13.64,7.37.09.6-1.88-.07-2.52-.31Z"/><path class="cls-1" d="M328.47,128.37l-10.44,4.76c-1.79.81-3.45,1.34-5.76,1.14,3.3-5.72,9.26-9.73,16.2-5.9Z"/></svg>